<?xml version="1.0" standalone="no"?><!DOCTYPE svg PUBLIC "-//W3C//DTD SVG 1.1//EN" "http://www.w3.org/Graphics/SVG/1.1/DTD/svg11.dtd"><svg class="icon" width="200px" height="200.00px" viewBox="0 0 1024 1024" version="1.1" xmlns="http://www.w3.org/2000/svg"><path d="M910.2336 1024H113.7664C51.2 1024 0 972.8 0 910.2336V113.7664C0 51.2 51.2 0 113.7664 0h796.4672C972.8 0 1024 51.2 1024 113.7664v796.4672C1024 972.8 972.8 1024 910.2336 1024z m-236.544-242.176l-196.6848-516.352h-71.3472L208.9984 781.824h73.6768l49.664-141.312h215.0144l52.6336 141.312h73.6768z m65.9712 0h65.3568V413.1584h-65.3568V781.824z m-7.68-498.6624c0 11.5456 3.9168 21.1712 11.6992 28.8512 7.7568 7.6544 17.5616 11.4944 29.3376 11.4944 11.776 0 21.6832-3.84 29.824-11.52 8.1152-7.68 12.16-17.28 12.16-28.8256 0-11.776-4.0448-21.5552-12.16-29.312a41.472 41.472 0 0 0-29.824-11.6736c-11.5712 0-21.2992 3.9168-29.184 11.8272a39.6544 39.6544 0 0 0-11.8528 29.184z m-205.312 299.008h-173.3376l77.312-214.6816c3.1232-8.448 5.888-20.4544 8.3456-35.9936h1.6896c2.8672 17.1264 5.5552 29.1072 7.9872 35.9936l78.0032 214.6816z" fill="#F6B502" /></svg>